<?xml version="1.0" standalone="no"?>
<!DOCTYPE svg PUBLIC "-//W3C//DTD SVG 20010904//EN"
 "http://www.w3.org/TR/2001/REC-SVG-20010904/DTD/svg10.dtd">
<svg version="1.0" xmlns="http://www.w3.org/2000/svg"
 width="256.000000pt" height="192.000000pt" viewBox="0 0 256.000000 192.000000"
 preserveAspectRatio="xMidYMid meet">

<g transform="translate(0.000000,192.000000) scale(0.100000,-0.100000)"
fill="#000000" stroke="none">
<path d="M388 1217 c-117 -34 -167 -111 -168 -263 0 -89 23 -155 69 -197 61
-55 94 -62 286 -62 197 0 241 11 299 75 44 48 56 93 56 200 -1 130 -42 200
-140 236 -61 22 -335 30 -402 11z m256 -67 c49 -18 66 -64 66 -175 0 -179 -20
-210 -137 -210 -69 0 -77 2 -98 27 -29 33 -40 109 -32 219 5 81 19 114 59 136
28 15 107 17 142 3z"/>
<path d="M968 1175 c4 -32 7 -35 38 -35 l34 0 0 -185 0 -185 -38 0 c-38 0 -38
0 -34 -35 l4 -35 174 0 174 0 0 34 c0 32 -3 35 -32 38 l-33 3 -3 66 c-3 63 -1
67 25 84 l27 18 44 -49 c24 -27 57 -66 74 -86 l30 -38 -26 0 c-23 0 -26 -4
-26 -35 l0 -35 185 0 185 0 0 35 c0 34 -1 35 -38 35 -37 0 -46 7 -162 130 -67
72 -121 132 -119 134 2 2 41 26 86 55 71 44 90 51 133 51 l50 0 0 35 0 35
-160 0 -160 0 0 -34 c0 -30 3 -35 28 -38 24 -3 16 -10 -71 -65 -53 -35 -99
-63 -102 -63 -3 0 -5 29 -5 65 l0 65 40 0 c39 0 40 1 40 35 l0 35 -183 0 -183
0 4 -35z"/>
<path d="M1810 1175 c0 -34 1 -35 40 -35 l40 0 0 -185 0 -185 -40 0 c-39 0
-40 -1 -40 -35 l0 -35 190 0 190 0 0 34 c0 33 -2 35 -37 38 l-38 3 -3 183 -2
182 40 0 c39 0 40 1 40 35 l0 35 -190 0 -190 0 0 -35z"/>
</g>
</svg>
